# xmcd CD database file
#
# Track frame offsets:
#	150
#	14715
#	30442
#	46455
#	67768
#	102317
#	128880
#	150573
#	178945
#	199180
#	216541
#
# Disc length: 3153 seconds
#
# Revision: 1
# Processed by: cddbd v1.4PL0 Copyright (c) Steve Scherf et al.
# Submitted via: CDex 1.50
#
DISCID=9c0c4f0b
DTITLE=Jimmy Thackery and Tab Benoit - Whiskey Store
DYEAR=2002
DGENRE=Blues
TTITLE0=I Ain't Broke
TTITLE1=Whiskey Store
TTITLE2=Away, Away Too Long
TTITLE3=Strange Things Happen
TTITLE4=Nice And Warm
TTITLE5=Leopard-Skin Pill-Box Hat
TTITLE6=Unknown Legend
TTITLE7=Bad Luck Blues
TTITLE8=Freddy's Combo
TTITLE9=The Last Time
TTITLE10=Bone Pickin'
EXTD=YEAR: 2002
EXTT0=
EXTT1=
EXTT2=
EXTT3=
EXTT4=
EXTT5=
EXTT6=
EXTT7=
EXTT8=
EXTT9=
EXTT10=
PLAYORDER=
